<mxfile host="app.diagrams.net" agent="Mozilla/5.0 (Macintosh; Intel Mac OS X 10_15_7) AppleWebKit/537.36 (KHTML, like Gecko) Chrome/128.0.0.0 Safari/537.36" version="24.7.12">
  <diagram name="第 1 页" id="t_a9YG21L4MeaAABVRxK">
    <mxGraphModel dx="412" dy="278" grid="0" gridSize="10" guides="1" tooltips="1" connect="1" arrows="1" fold="1" page="0" pageScale="1" pageWidth="827" pageHeight="1169" math="0" shadow="0">
      <root>
        <mxCell id="0" />
        <mxCell id="1" parent="0" />
        <mxCell id="oqe3vawdaUg09Sf6dShr-1" value="通用队列" style="rounded=1;whiteSpace=wrap;html=1;" parent="1" vertex="1">
          <mxGeometry x="125" y="170" width="314" height="41" as="geometry" />
        </mxCell>
        <mxCell id="oqe3vawdaUg09Sf6dShr-2" value="" style="rounded=1;whiteSpace=wrap;html=1;" parent="1" vertex="1">
          <mxGeometry x="125" y="222" width="32" height="102" as="geometry" />
        </mxCell>
        <mxCell id="oqe3vawdaUg09Sf6dShr-4" value="32bits" style="rounded=0;whiteSpace=wrap;html=1;fontSize=6;" parent="1" vertex="1">
          <mxGeometry x="132.5" y="226" width="17" height="17" as="geometry" />
        </mxCell>
        <mxCell id="oqe3vawdaUg09Sf6dShr-6" value="&lt;span style=&quot;font-size: 6px;&quot;&gt;32bits&lt;/span&gt;" style="rounded=0;whiteSpace=wrap;html=1;" parent="1" vertex="1">
          <mxGeometry x="132.5" y="250" width="17" height="17" as="geometry" />
        </mxCell>
        <mxCell id="oqe3vawdaUg09Sf6dShr-8" value="&lt;span style=&quot;font-size: 6px;&quot;&gt;32bits&lt;/span&gt;" style="rounded=0;whiteSpace=wrap;html=1;" parent="1" vertex="1">
          <mxGeometry x="132.5" y="301" width="17" height="17" as="geometry" />
        </mxCell>
        <mxCell id="oqe3vawdaUg09Sf6dShr-20" value="" style="ellipse;whiteSpace=wrap;html=1;aspect=fixed;" parent="1" vertex="1">
          <mxGeometry x="139" y="274" width="4" height="4" as="geometry" />
        </mxCell>
        <mxCell id="oqe3vawdaUg09Sf6dShr-21" value="" style="ellipse;whiteSpace=wrap;html=1;aspect=fixed;" parent="1" vertex="1">
          <mxGeometry x="139" y="281" width="4" height="4" as="geometry" />
        </mxCell>
        <mxCell id="oqe3vawdaUg09Sf6dShr-25" value="" style="ellipse;whiteSpace=wrap;html=1;aspect=fixed;" parent="1" vertex="1">
          <mxGeometry x="139" y="288" width="4" height="4" as="geometry" />
        </mxCell>
        <mxCell id="oqe3vawdaUg09Sf6dShr-26" value="" style="ellipse;whiteSpace=wrap;html=1;aspect=fixed;" parent="1" vertex="1">
          <mxGeometry x="302" y="270" width="4" height="4" as="geometry" />
        </mxCell>
        <mxCell id="oqe3vawdaUg09Sf6dShr-27" value="" style="ellipse;whiteSpace=wrap;html=1;aspect=fixed;" parent="1" vertex="1">
          <mxGeometry x="309" y="270" width="4" height="4" as="geometry" />
        </mxCell>
        <mxCell id="oqe3vawdaUg09Sf6dShr-28" value="" style="ellipse;whiteSpace=wrap;html=1;aspect=fixed;" parent="1" vertex="1">
          <mxGeometry x="316" y="270" width="4" height="4" as="geometry" />
        </mxCell>
        <mxCell id="oqe3vawdaUg09Sf6dShr-32" value="" style="rounded=1;whiteSpace=wrap;html=1;" parent="1" vertex="1">
          <mxGeometry x="181" y="222" width="32" height="102" as="geometry" />
        </mxCell>
        <mxCell id="oqe3vawdaUg09Sf6dShr-33" value="&lt;meta charset=&quot;utf-8&quot;&gt;&lt;span style=&quot;color: rgb(0, 0, 0); font-family: Helvetica; font-size: 6px; font-style: normal; font-variant-ligatures: normal; font-variant-caps: normal; font-weight: 400; letter-spacing: normal; orphans: 2; text-align: center; text-indent: 0px; text-transform: none; widows: 2; word-spacing: 0px; -webkit-text-stroke-width: 0px; white-space: normal; background-color: rgb(255, 255, 255); text-decoration-thickness: initial; text-decoration-style: initial; text-decoration-color: initial; display: inline !important; float: none;&quot;&gt;32bits&lt;/span&gt;" style="rounded=0;whiteSpace=wrap;html=1;" parent="1" vertex="1">
          <mxGeometry x="188.5" y="226" width="17" height="17" as="geometry" />
        </mxCell>
        <mxCell id="oqe3vawdaUg09Sf6dShr-34" value="&lt;meta charset=&quot;utf-8&quot;&gt;&lt;span style=&quot;color: rgb(0, 0, 0); font-family: Helvetica; font-size: 6px; font-style: normal; font-variant-ligatures: normal; font-variant-caps: normal; font-weight: 400; letter-spacing: normal; orphans: 2; text-align: center; text-indent: 0px; text-transform: none; widows: 2; word-spacing: 0px; -webkit-text-stroke-width: 0px; white-space: normal; background-color: rgb(255, 255, 255); text-decoration-thickness: initial; text-decoration-style: initial; text-decoration-color: initial; display: inline !important; float: none;&quot;&gt;32bits&lt;/span&gt;" style="rounded=0;whiteSpace=wrap;html=1;" parent="1" vertex="1">
          <mxGeometry x="188.5" y="250" width="17" height="17" as="geometry" />
        </mxCell>
        <mxCell id="oqe3vawdaUg09Sf6dShr-35" value="&lt;meta charset=&quot;utf-8&quot;&gt;&lt;span style=&quot;color: rgb(0, 0, 0); font-family: Helvetica; font-size: 6px; font-style: normal; font-variant-ligatures: normal; font-variant-caps: normal; font-weight: 400; letter-spacing: normal; orphans: 2; text-align: center; text-indent: 0px; text-transform: none; widows: 2; word-spacing: 0px; -webkit-text-stroke-width: 0px; white-space: normal; background-color: rgb(255, 255, 255); text-decoration-thickness: initial; text-decoration-style: initial; text-decoration-color: initial; display: inline !important; float: none;&quot;&gt;32bits&lt;/span&gt;" style="rounded=0;whiteSpace=wrap;html=1;" parent="1" vertex="1">
          <mxGeometry x="188.5" y="301" width="17" height="17" as="geometry" />
        </mxCell>
        <mxCell id="oqe3vawdaUg09Sf6dShr-36" value="" style="ellipse;whiteSpace=wrap;html=1;aspect=fixed;" parent="1" vertex="1">
          <mxGeometry x="195" y="274" width="4" height="4" as="geometry" />
        </mxCell>
        <mxCell id="oqe3vawdaUg09Sf6dShr-37" value="" style="ellipse;whiteSpace=wrap;html=1;aspect=fixed;" parent="1" vertex="1">
          <mxGeometry x="195" y="281" width="4" height="4" as="geometry" />
        </mxCell>
        <mxCell id="oqe3vawdaUg09Sf6dShr-38" value="" style="ellipse;whiteSpace=wrap;html=1;aspect=fixed;" parent="1" vertex="1">
          <mxGeometry x="195" y="288" width="4" height="4" as="geometry" />
        </mxCell>
        <mxCell id="oqe3vawdaUg09Sf6dShr-39" value="" style="rounded=1;whiteSpace=wrap;html=1;" parent="1" vertex="1">
          <mxGeometry x="231" y="222" width="32" height="102" as="geometry" />
        </mxCell>
        <mxCell id="oqe3vawdaUg09Sf6dShr-40" value="&lt;meta charset=&quot;utf-8&quot;&gt;&lt;span style=&quot;color: rgb(0, 0, 0); font-family: Helvetica; font-size: 6px; font-style: normal; font-variant-ligatures: normal; font-variant-caps: normal; font-weight: 400; letter-spacing: normal; orphans: 2; text-align: center; text-indent: 0px; text-transform: none; widows: 2; word-spacing: 0px; -webkit-text-stroke-width: 0px; white-space: normal; background-color: rgb(255, 255, 255); text-decoration-thickness: initial; text-decoration-style: initial; text-decoration-color: initial; display: inline !important; float: none;&quot;&gt;32bits&lt;/span&gt;" style="rounded=0;whiteSpace=wrap;html=1;" parent="1" vertex="1">
          <mxGeometry x="238.5" y="226" width="17" height="17" as="geometry" />
        </mxCell>
        <mxCell id="oqe3vawdaUg09Sf6dShr-41" value="&lt;meta charset=&quot;utf-8&quot;&gt;&lt;span style=&quot;color: rgb(0, 0, 0); font-family: Helvetica; font-size: 6px; font-style: normal; font-variant-ligatures: normal; font-variant-caps: normal; font-weight: 400; letter-spacing: normal; orphans: 2; text-align: center; text-indent: 0px; text-transform: none; widows: 2; word-spacing: 0px; -webkit-text-stroke-width: 0px; white-space: normal; background-color: rgb(255, 255, 255); text-decoration-thickness: initial; text-decoration-style: initial; text-decoration-color: initial; display: inline !important; float: none;&quot;&gt;32bits&lt;/span&gt;" style="rounded=0;whiteSpace=wrap;html=1;" parent="1" vertex="1">
          <mxGeometry x="238.5" y="250" width="17" height="17" as="geometry" />
        </mxCell>
        <mxCell id="oqe3vawdaUg09Sf6dShr-42" value="&lt;meta charset=&quot;utf-8&quot;&gt;&lt;span style=&quot;color: rgb(0, 0, 0); font-family: Helvetica; font-size: 6px; font-style: normal; font-variant-ligatures: normal; font-variant-caps: normal; font-weight: 400; letter-spacing: normal; orphans: 2; text-align: center; text-indent: 0px; text-transform: none; widows: 2; word-spacing: 0px; -webkit-text-stroke-width: 0px; white-space: normal; background-color: rgb(255, 255, 255); text-decoration-thickness: initial; text-decoration-style: initial; text-decoration-color: initial; display: inline !important; float: none;&quot;&gt;32bits&lt;/span&gt;" style="rounded=0;whiteSpace=wrap;html=1;" parent="1" vertex="1">
          <mxGeometry x="238.5" y="301" width="17" height="17" as="geometry" />
        </mxCell>
        <mxCell id="oqe3vawdaUg09Sf6dShr-43" value="" style="ellipse;whiteSpace=wrap;html=1;aspect=fixed;" parent="1" vertex="1">
          <mxGeometry x="245" y="274" width="4" height="4" as="geometry" />
        </mxCell>
        <mxCell id="oqe3vawdaUg09Sf6dShr-44" value="" style="ellipse;whiteSpace=wrap;html=1;aspect=fixed;" parent="1" vertex="1">
          <mxGeometry x="245" y="281" width="4" height="4" as="geometry" />
        </mxCell>
        <mxCell id="oqe3vawdaUg09Sf6dShr-45" value="" style="ellipse;whiteSpace=wrap;html=1;aspect=fixed;" parent="1" vertex="1">
          <mxGeometry x="245" y="288" width="4" height="4" as="geometry" />
        </mxCell>
        <mxCell id="oqe3vawdaUg09Sf6dShr-46" value="" style="rounded=1;whiteSpace=wrap;html=1;" parent="1" vertex="1">
          <mxGeometry x="405" y="222" width="32" height="102" as="geometry" />
        </mxCell>
        <mxCell id="oqe3vawdaUg09Sf6dShr-47" value="&lt;meta charset=&quot;utf-8&quot;&gt;&lt;span style=&quot;color: rgb(0, 0, 0); font-family: Helvetica; font-size: 6px; font-style: normal; font-variant-ligatures: normal; font-variant-caps: normal; font-weight: 400; letter-spacing: normal; orphans: 2; text-align: center; text-indent: 0px; text-transform: none; widows: 2; word-spacing: 0px; -webkit-text-stroke-width: 0px; white-space: normal; background-color: rgb(255, 255, 255); text-decoration-thickness: initial; text-decoration-style: initial; text-decoration-color: initial; display: inline !important; float: none;&quot;&gt;32bits&lt;/span&gt;" style="rounded=0;whiteSpace=wrap;html=1;" parent="1" vertex="1">
          <mxGeometry x="412.5" y="226" width="17" height="17" as="geometry" />
        </mxCell>
        <mxCell id="oqe3vawdaUg09Sf6dShr-48" value="&lt;meta charset=&quot;utf-8&quot;&gt;&lt;span style=&quot;color: rgb(0, 0, 0); font-family: Helvetica; font-size: 6px; font-style: normal; font-variant-ligatures: normal; font-variant-caps: normal; font-weight: 400; letter-spacing: normal; orphans: 2; text-align: center; text-indent: 0px; text-transform: none; widows: 2; word-spacing: 0px; -webkit-text-stroke-width: 0px; white-space: normal; background-color: rgb(255, 255, 255); text-decoration-thickness: initial; text-decoration-style: initial; text-decoration-color: initial; display: inline !important; float: none;&quot;&gt;32bits&lt;/span&gt;" style="rounded=0;whiteSpace=wrap;html=1;" parent="1" vertex="1">
          <mxGeometry x="412.5" y="250" width="17" height="17" as="geometry" />
        </mxCell>
        <mxCell id="oqe3vawdaUg09Sf6dShr-49" value="&lt;meta charset=&quot;utf-8&quot;&gt;&lt;span style=&quot;color: rgb(0, 0, 0); font-family: Helvetica; font-size: 6px; font-style: normal; font-variant-ligatures: normal; font-variant-caps: normal; font-weight: 400; letter-spacing: normal; orphans: 2; text-align: center; text-indent: 0px; text-transform: none; widows: 2; word-spacing: 0px; -webkit-text-stroke-width: 0px; white-space: normal; background-color: rgb(255, 255, 255); text-decoration-thickness: initial; text-decoration-style: initial; text-decoration-color: initial; display: inline !important; float: none;&quot;&gt;32bits&lt;/span&gt;" style="rounded=0;whiteSpace=wrap;html=1;" parent="1" vertex="1">
          <mxGeometry x="412.5" y="301" width="17" height="17" as="geometry" />
        </mxCell>
        <mxCell id="oqe3vawdaUg09Sf6dShr-50" value="" style="ellipse;whiteSpace=wrap;html=1;aspect=fixed;" parent="1" vertex="1">
          <mxGeometry x="419" y="274" width="4" height="4" as="geometry" />
        </mxCell>
        <mxCell id="oqe3vawdaUg09Sf6dShr-51" value="" style="ellipse;whiteSpace=wrap;html=1;aspect=fixed;" parent="1" vertex="1">
          <mxGeometry x="419" y="281" width="4" height="4" as="geometry" />
        </mxCell>
        <mxCell id="oqe3vawdaUg09Sf6dShr-52" value="" style="ellipse;whiteSpace=wrap;html=1;aspect=fixed;" parent="1" vertex="1">
          <mxGeometry x="419" y="288" width="4" height="4" as="geometry" />
        </mxCell>
        <mxCell id="oqe3vawdaUg09Sf6dShr-53" value="" style="rounded=1;whiteSpace=wrap;html=1;" parent="1" vertex="1">
          <mxGeometry x="360" y="222" width="32" height="102" as="geometry" />
        </mxCell>
        <mxCell id="oqe3vawdaUg09Sf6dShr-54" value="&lt;meta charset=&quot;utf-8&quot;&gt;&lt;span style=&quot;color: rgb(0, 0, 0); font-family: Helvetica; font-size: 6px; font-style: normal; font-variant-ligatures: normal; font-variant-caps: normal; font-weight: 400; letter-spacing: normal; orphans: 2; text-align: center; text-indent: 0px; text-transform: none; widows: 2; word-spacing: 0px; -webkit-text-stroke-width: 0px; white-space: normal; background-color: rgb(255, 255, 255); text-decoration-thickness: initial; text-decoration-style: initial; text-decoration-color: initial; display: inline !important; float: none;&quot;&gt;32bits&lt;/span&gt;" style="rounded=0;whiteSpace=wrap;html=1;" parent="1" vertex="1">
          <mxGeometry x="367.5" y="226" width="17" height="17" as="geometry" />
        </mxCell>
        <mxCell id="oqe3vawdaUg09Sf6dShr-55" value="&lt;meta charset=&quot;utf-8&quot;&gt;&lt;span style=&quot;color: rgb(0, 0, 0); font-family: Helvetica; font-size: 6px; font-style: normal; font-variant-ligatures: normal; font-variant-caps: normal; font-weight: 400; letter-spacing: normal; orphans: 2; text-align: center; text-indent: 0px; text-transform: none; widows: 2; word-spacing: 0px; -webkit-text-stroke-width: 0px; white-space: normal; background-color: rgb(255, 255, 255); text-decoration-thickness: initial; text-decoration-style: initial; text-decoration-color: initial; display: inline !important; float: none;&quot;&gt;32bits&lt;/span&gt;" style="rounded=0;whiteSpace=wrap;html=1;" parent="1" vertex="1">
          <mxGeometry x="367.5" y="250" width="17" height="17" as="geometry" />
        </mxCell>
        <mxCell id="oqe3vawdaUg09Sf6dShr-56" value="&lt;meta charset=&quot;utf-8&quot;&gt;&lt;span style=&quot;color: rgb(0, 0, 0); font-family: Helvetica; font-size: 6px; font-style: normal; font-variant-ligatures: normal; font-variant-caps: normal; font-weight: 400; letter-spacing: normal; orphans: 2; text-align: center; text-indent: 0px; text-transform: none; widows: 2; word-spacing: 0px; -webkit-text-stroke-width: 0px; white-space: normal; background-color: rgb(255, 255, 255); text-decoration-thickness: initial; text-decoration-style: initial; text-decoration-color: initial; display: inline !important; float: none;&quot;&gt;32bits&lt;/span&gt;" style="rounded=0;whiteSpace=wrap;html=1;" parent="1" vertex="1">
          <mxGeometry x="367.5" y="301" width="17" height="17" as="geometry" />
        </mxCell>
        <mxCell id="oqe3vawdaUg09Sf6dShr-57" value="" style="ellipse;whiteSpace=wrap;html=1;aspect=fixed;" parent="1" vertex="1">
          <mxGeometry x="374" y="274" width="4" height="4" as="geometry" />
        </mxCell>
        <mxCell id="oqe3vawdaUg09Sf6dShr-58" value="" style="ellipse;whiteSpace=wrap;html=1;aspect=fixed;" parent="1" vertex="1">
          <mxGeometry x="374" y="281" width="4" height="4" as="geometry" />
        </mxCell>
        <mxCell id="oqe3vawdaUg09Sf6dShr-59" value="" style="ellipse;whiteSpace=wrap;html=1;aspect=fixed;" parent="1" vertex="1">
          <mxGeometry x="374" y="288" width="4" height="4" as="geometry" />
        </mxCell>
        <mxCell id="oqe3vawdaUg09Sf6dShr-62" value="" style="endArrow=none;html=1;rounded=0;entryX=0;entryY=0;entryDx=0;entryDy=0;exitX=0;exitY=1;exitDx=0;exitDy=0;edgeStyle=orthogonalEdgeStyle;curved=1;" parent="1" source="oqe3vawdaUg09Sf6dShr-2" target="oqe3vawdaUg09Sf6dShr-2" edge="1">
          <mxGeometry width="50" height="50" relative="1" as="geometry">
            <mxPoint x="57" y="281" as="sourcePoint" />
            <mxPoint x="107" y="231" as="targetPoint" />
            <Array as="points">
              <mxPoint x="99" y="274" />
            </Array>
          </mxGeometry>
        </mxCell>
        <mxCell id="oqe3vawdaUg09Sf6dShr-66" value="64个" style="text;html=1;align=center;verticalAlign=middle;whiteSpace=wrap;rounded=0;" parent="1" vertex="1">
          <mxGeometry x="277" y="343" width="29" height="30" as="geometry" />
        </mxCell>
        <mxCell id="oqe3vawdaUg09Sf6dShr-67" value="16个" style="text;html=1;align=center;verticalAlign=middle;whiteSpace=wrap;rounded=0;" parent="1" vertex="1">
          <mxGeometry x="71" y="263.5" width="37" height="17" as="geometry" />
        </mxCell>
        <mxCell id="oqe3vawdaUg09Sf6dShr-68" value="" style="endArrow=none;html=1;rounded=0;exitX=0;exitY=1;exitDx=0;exitDy=0;entryX=1;entryY=1;entryDx=0;entryDy=0;edgeStyle=orthogonalEdgeStyle;curved=1;" parent="1" source="oqe3vawdaUg09Sf6dShr-2" target="oqe3vawdaUg09Sf6dShr-46" edge="1">
          <mxGeometry width="50" height="50" relative="1" as="geometry">
            <mxPoint x="231" y="405" as="sourcePoint" />
            <mxPoint x="281" y="355" as="targetPoint" />
            <Array as="points">
              <mxPoint x="125" y="347" />
              <mxPoint x="437" y="347" />
            </Array>
          </mxGeometry>
        </mxCell>
        <mxCell id="IA1L6tu0nkUOfIpiAk8X-1" value="通用队列" style="rounded=1;whiteSpace=wrap;html=1;" parent="1" vertex="1">
          <mxGeometry x="792" y="157" width="314" height="41" as="geometry" />
        </mxCell>
        <mxCell id="IA1L6tu0nkUOfIpiAk8X-2" value="" style="rounded=1;whiteSpace=wrap;html=1;" parent="1" vertex="1">
          <mxGeometry x="792" y="209" width="32" height="102" as="geometry" />
        </mxCell>
        <mxCell id="IA1L6tu0nkUOfIpiAk8X-3" value="start&lt;br&gt;+0" style="rounded=0;whiteSpace=wrap;html=1;fontSize=6;" parent="1" vertex="1">
          <mxGeometry x="799.5" y="213" width="17" height="17" as="geometry" />
        </mxCell>
        <mxCell id="IA1L6tu0nkUOfIpiAk8X-4" value="start&lt;br&gt;+64" style="rounded=0;whiteSpace=wrap;html=1;fontSize=6;" parent="1" vertex="1">
          <mxGeometry x="799.5" y="237" width="17" height="17" as="geometry" />
        </mxCell>
        <mxCell id="IA1L6tu0nkUOfIpiAk8X-5" value="" style="rounded=0;whiteSpace=wrap;html=1;fontSize=6;" parent="1" vertex="1">
          <mxGeometry x="799.5" y="288" width="17" height="17" as="geometry" />
        </mxCell>
        <mxCell id="IA1L6tu0nkUOfIpiAk8X-6" value="" style="ellipse;whiteSpace=wrap;html=1;aspect=fixed;" parent="1" vertex="1">
          <mxGeometry x="806" y="261" width="4" height="4" as="geometry" />
        </mxCell>
        <mxCell id="IA1L6tu0nkUOfIpiAk8X-7" value="" style="ellipse;whiteSpace=wrap;html=1;aspect=fixed;" parent="1" vertex="1">
          <mxGeometry x="806" y="268" width="4" height="4" as="geometry" />
        </mxCell>
        <mxCell id="IA1L6tu0nkUOfIpiAk8X-8" value="" style="ellipse;whiteSpace=wrap;html=1;aspect=fixed;" parent="1" vertex="1">
          <mxGeometry x="806" y="275" width="4" height="4" as="geometry" />
        </mxCell>
        <mxCell id="IA1L6tu0nkUOfIpiAk8X-9" value="" style="ellipse;whiteSpace=wrap;html=1;aspect=fixed;" parent="1" vertex="1">
          <mxGeometry x="969" y="257" width="4" height="4" as="geometry" />
        </mxCell>
        <mxCell id="IA1L6tu0nkUOfIpiAk8X-10" value="" style="ellipse;whiteSpace=wrap;html=1;aspect=fixed;" parent="1" vertex="1">
          <mxGeometry x="976" y="257" width="4" height="4" as="geometry" />
        </mxCell>
        <mxCell id="IA1L6tu0nkUOfIpiAk8X-11" value="" style="ellipse;whiteSpace=wrap;html=1;aspect=fixed;" parent="1" vertex="1">
          <mxGeometry x="983" y="257" width="4" height="4" as="geometry" />
        </mxCell>
        <mxCell id="IA1L6tu0nkUOfIpiAk8X-12" value="" style="rounded=1;whiteSpace=wrap;html=1;" parent="1" vertex="1">
          <mxGeometry x="848" y="209" width="32" height="102" as="geometry" />
        </mxCell>
        <mxCell id="IA1L6tu0nkUOfIpiAk8X-13" value="&lt;span style=&quot;color: rgb(0, 0, 0); font-family: Helvetica; font-size: 6px; font-style: normal; font-variant-ligatures: normal; font-variant-caps: normal; font-weight: 400; letter-spacing: normal; orphans: 2; text-align: center; text-indent: 0px; text-transform: none; widows: 2; word-spacing: 0px; -webkit-text-stroke-width: 0px; white-space: normal; background-color: rgb(255, 255, 255); text-decoration-thickness: initial; text-decoration-style: initial; text-decoration-color: initial; float: none; display: inline !important;&quot;&gt;start&lt;br style=&quot;font-size: 6px;&quot;&gt;+1&lt;/span&gt;" style="rounded=0;whiteSpace=wrap;html=1;fontSize=6;" parent="1" vertex="1">
          <mxGeometry x="855.5" y="213" width="17" height="17" as="geometry" />
        </mxCell>
        <mxCell id="IA1L6tu0nkUOfIpiAk8X-14" value="&lt;span style=&quot;color: rgb(0, 0, 0); font-family: Helvetica; font-size: 6px; font-style: normal; font-variant-ligatures: normal; font-variant-caps: normal; font-weight: 400; letter-spacing: normal; orphans: 2; text-align: center; text-indent: 0px; text-transform: none; widows: 2; word-spacing: 0px; -webkit-text-stroke-width: 0px; white-space: normal; background-color: rgb(255, 255, 255); text-decoration-thickness: initial; text-decoration-style: initial; text-decoration-color: initial; float: none; display: inline !important;&quot;&gt;start&lt;br&gt;+65&lt;/span&gt;" style="rounded=0;whiteSpace=wrap;html=1;fontSize=6;" parent="1" vertex="1">
          <mxGeometry x="855.5" y="237" width="17" height="17" as="geometry" />
        </mxCell>
        <mxCell id="IA1L6tu0nkUOfIpiAk8X-15" value="" style="rounded=0;whiteSpace=wrap;html=1;fontSize=6;" parent="1" vertex="1">
          <mxGeometry x="855.5" y="288" width="17" height="17" as="geometry" />
        </mxCell>
        <mxCell id="IA1L6tu0nkUOfIpiAk8X-16" value="" style="ellipse;whiteSpace=wrap;html=1;aspect=fixed;" parent="1" vertex="1">
          <mxGeometry x="862" y="261" width="4" height="4" as="geometry" />
        </mxCell>
        <mxCell id="IA1L6tu0nkUOfIpiAk8X-17" value="" style="ellipse;whiteSpace=wrap;html=1;aspect=fixed;" parent="1" vertex="1">
          <mxGeometry x="862" y="268" width="4" height="4" as="geometry" />
        </mxCell>
        <mxCell id="IA1L6tu0nkUOfIpiAk8X-18" value="" style="ellipse;whiteSpace=wrap;html=1;aspect=fixed;" parent="1" vertex="1">
          <mxGeometry x="862" y="275" width="4" height="4" as="geometry" />
        </mxCell>
        <mxCell id="IA1L6tu0nkUOfIpiAk8X-19" value="" style="rounded=1;whiteSpace=wrap;html=1;" parent="1" vertex="1">
          <mxGeometry x="898" y="209" width="32" height="102" as="geometry" />
        </mxCell>
        <mxCell id="IA1L6tu0nkUOfIpiAk8X-20" value="&lt;span style=&quot;color: rgb(0, 0, 0); font-family: Helvetica; font-size: 5px; font-style: normal; font-variant-ligatures: normal; font-variant-caps: normal; font-weight: 400; letter-spacing: normal; orphans: 2; text-indent: 0px; text-transform: none; widows: 2; word-spacing: 0px; -webkit-text-stroke-width: 0px; white-space: normal; background-color: rgb(255, 255, 255); text-decoration-thickness: initial; text-decoration-style: initial; text-decoration-color: initial; float: none; display: inline !important;&quot;&gt;start&lt;br style=&quot;font-size: 5px;&quot;&gt;+2&lt;/span&gt;" style="rounded=0;whiteSpace=wrap;html=1;verticalAlign=middle;align=center;fontSize=5;" parent="1" vertex="1">
          <mxGeometry x="905.5" y="213" width="17" height="17" as="geometry" />
        </mxCell>
        <mxCell id="IA1L6tu0nkUOfIpiAk8X-21" value="&lt;span style=&quot;color: rgb(0, 0, 0); font-family: Helvetica; font-size: 6px; font-style: normal; font-variant-ligatures: normal; font-variant-caps: normal; font-weight: 400; letter-spacing: normal; orphans: 2; text-align: center; text-indent: 0px; text-transform: none; widows: 2; word-spacing: 0px; -webkit-text-stroke-width: 0px; white-space: normal; background-color: rgb(255, 255, 255); text-decoration-thickness: initial; text-decoration-style: initial; text-decoration-color: initial; float: none; display: inline !important;&quot;&gt;start&lt;br&gt;+66&lt;/span&gt;" style="rounded=0;whiteSpace=wrap;html=1;fontSize=6;" parent="1" vertex="1">
          <mxGeometry x="905.5" y="237" width="17" height="17" as="geometry" />
        </mxCell>
        <mxCell id="IA1L6tu0nkUOfIpiAk8X-22" value="" style="rounded=0;whiteSpace=wrap;html=1;fontSize=6;" parent="1" vertex="1">
          <mxGeometry x="905.5" y="288" width="17" height="17" as="geometry" />
        </mxCell>
        <mxCell id="IA1L6tu0nkUOfIpiAk8X-23" value="" style="ellipse;whiteSpace=wrap;html=1;aspect=fixed;" parent="1" vertex="1">
          <mxGeometry x="912" y="261" width="4" height="4" as="geometry" />
        </mxCell>
        <mxCell id="IA1L6tu0nkUOfIpiAk8X-24" value="" style="ellipse;whiteSpace=wrap;html=1;aspect=fixed;" parent="1" vertex="1">
          <mxGeometry x="912" y="268" width="4" height="4" as="geometry" />
        </mxCell>
        <mxCell id="IA1L6tu0nkUOfIpiAk8X-25" value="" style="ellipse;whiteSpace=wrap;html=1;aspect=fixed;" parent="1" vertex="1">
          <mxGeometry x="912" y="275" width="4" height="4" as="geometry" />
        </mxCell>
        <mxCell id="IA1L6tu0nkUOfIpiAk8X-26" value="" style="rounded=1;whiteSpace=wrap;html=1;" parent="1" vertex="1">
          <mxGeometry x="1072" y="209" width="32" height="102" as="geometry" />
        </mxCell>
        <mxCell id="IA1L6tu0nkUOfIpiAk8X-27" value="&lt;span style=&quot;color: rgb(0, 0, 0); font-family: Helvetica; font-size: 6px; font-style: normal; font-variant-ligatures: normal; font-variant-caps: normal; font-weight: 400; letter-spacing: normal; orphans: 2; text-align: center; text-indent: 0px; text-transform: none; widows: 2; word-spacing: 0px; -webkit-text-stroke-width: 0px; white-space: normal; background-color: rgb(255, 255, 255); text-decoration-thickness: initial; text-decoration-style: initial; text-decoration-color: initial; float: none; display: inline !important;&quot;&gt;start&lt;br&gt;+63&lt;/span&gt;" style="rounded=0;whiteSpace=wrap;html=1;fontSize=6;" parent="1" vertex="1">
          <mxGeometry x="1079.5" y="213" width="17" height="17" as="geometry" />
        </mxCell>
        <mxCell id="IA1L6tu0nkUOfIpiAk8X-28" value="&lt;span style=&quot;color: rgb(0, 0, 0); font-family: Helvetica; font-size: 6px; font-style: normal; font-variant-ligatures: normal; font-variant-caps: normal; font-weight: 400; letter-spacing: normal; orphans: 2; text-align: center; text-indent: 0px; text-transform: none; widows: 2; word-spacing: 0px; -webkit-text-stroke-width: 0px; white-space: normal; background-color: rgb(255, 255, 255); text-decoration-thickness: initial; text-decoration-style: initial; text-decoration-color: initial; float: none; display: inline !important;&quot;&gt;start&lt;/span&gt;&lt;div&gt;&lt;span style=&quot;color: rgb(0, 0, 0); font-family: Helvetica; font-size: 6px; font-style: normal; font-variant-ligatures: normal; font-variant-caps: normal; font-weight: 400; letter-spacing: normal; orphans: 2; text-align: center; text-indent: 0px; text-transform: none; widows: 2; word-spacing: 0px; -webkit-text-stroke-width: 0px; white-space: normal; background-color: rgb(255, 255, 255); text-decoration-thickness: initial; text-decoration-style: initial; text-decoration-color: initial; float: none; display: inline !important;&quot;&gt;+68&lt;/span&gt;&lt;/div&gt;" style="rounded=0;whiteSpace=wrap;html=1;fontSize=6;" parent="1" vertex="1">
          <mxGeometry x="1079.5" y="237" width="17" height="17" as="geometry" />
        </mxCell>
        <mxCell id="IA1L6tu0nkUOfIpiAk8X-29" value="&lt;span style=&quot;color: rgb(0, 0, 0); font-family: Helvetica; font-size: 6px; font-style: normal; font-variant-ligatures: normal; font-variant-caps: normal; font-weight: 400; letter-spacing: normal; orphans: 2; text-align: center; text-indent: 0px; text-transform: none; widows: 2; word-spacing: 0px; -webkit-text-stroke-width: 0px; white-space: normal; background-color: rgb(255, 255, 255); text-decoration-thickness: initial; text-decoration-style: initial; text-decoration-color: initial; float: none; display: inline !important;&quot;&gt;end&lt;/span&gt;&lt;div&gt;&lt;span style=&quot;color: rgb(0, 0, 0); font-family: Helvetica; font-size: 6px; font-style: normal; font-variant-ligatures: normal; font-variant-caps: normal; font-weight: 400; letter-spacing: normal; orphans: 2; text-align: center; text-indent: 0px; text-transform: none; widows: 2; word-spacing: 0px; -webkit-text-stroke-width: 0px; white-space: normal; background-color: rgb(255, 255, 255); text-decoration-thickness: initial; text-decoration-style: initial; text-decoration-color: initial; float: none; display: inline !important;&quot;&gt;-1&lt;/span&gt;&lt;/div&gt;" style="rounded=0;whiteSpace=wrap;html=1;fontSize=6;" parent="1" vertex="1">
          <mxGeometry x="1079.5" y="288" width="17" height="17" as="geometry" />
        </mxCell>
        <mxCell id="IA1L6tu0nkUOfIpiAk8X-30" value="" style="ellipse;whiteSpace=wrap;html=1;aspect=fixed;" parent="1" vertex="1">
          <mxGeometry x="1086" y="261" width="4" height="4" as="geometry" />
        </mxCell>
        <mxCell id="IA1L6tu0nkUOfIpiAk8X-31" value="" style="ellipse;whiteSpace=wrap;html=1;aspect=fixed;" parent="1" vertex="1">
          <mxGeometry x="1086" y="268" width="4" height="4" as="geometry" />
        </mxCell>
        <mxCell id="IA1L6tu0nkUOfIpiAk8X-32" value="" style="ellipse;whiteSpace=wrap;html=1;aspect=fixed;" parent="1" vertex="1">
          <mxGeometry x="1086" y="275" width="4" height="4" as="geometry" />
        </mxCell>
        <mxCell id="IA1L6tu0nkUOfIpiAk8X-33" value="" style="rounded=1;whiteSpace=wrap;html=1;" parent="1" vertex="1">
          <mxGeometry x="1027" y="209" width="32" height="102" as="geometry" />
        </mxCell>
        <mxCell id="IA1L6tu0nkUOfIpiAk8X-34" value="&lt;span style=&quot;color: rgb(0, 0, 0); font-family: Helvetica; font-size: 6px; font-style: normal; font-variant-ligatures: normal; font-variant-caps: normal; font-weight: 400; letter-spacing: normal; orphans: 2; text-align: center; text-indent: 0px; text-transform: none; widows: 2; word-spacing: 0px; -webkit-text-stroke-width: 0px; white-space: normal; background-color: rgb(255, 255, 255); text-decoration-thickness: initial; text-decoration-style: initial; text-decoration-color: initial; float: none; display: inline !important;&quot;&gt;start&lt;br&gt;+62&lt;/span&gt;" style="rounded=0;whiteSpace=wrap;html=1;fontSize=6;" parent="1" vertex="1">
          <mxGeometry x="1034.5" y="213" width="17" height="17" as="geometry" />
        </mxCell>
        <mxCell id="IA1L6tu0nkUOfIpiAk8X-35" value="&lt;span style=&quot;color: rgb(0, 0, 0); font-family: Helvetica; font-size: 6px; font-style: normal; font-variant-ligatures: normal; font-variant-caps: normal; font-weight: 400; letter-spacing: normal; orphans: 2; text-align: center; text-indent: 0px; text-transform: none; widows: 2; word-spacing: 0px; -webkit-text-stroke-width: 0px; white-space: normal; background-color: rgb(255, 255, 255); text-decoration-thickness: initial; text-decoration-style: initial; text-decoration-color: initial; float: none; display: inline !important;&quot;&gt;start&lt;/span&gt;&lt;div&gt;&lt;span style=&quot;color: rgb(0, 0, 0); font-family: Helvetica; font-size: 6px; font-style: normal; font-variant-ligatures: normal; font-variant-caps: normal; font-weight: 400; letter-spacing: normal; orphans: 2; text-align: center; text-indent: 0px; text-transform: none; widows: 2; word-spacing: 0px; -webkit-text-stroke-width: 0px; white-space: normal; background-color: rgb(255, 255, 255); text-decoration-thickness: initial; text-decoration-style: initial; text-decoration-color: initial; float: none; display: inline !important;&quot;&gt;+67&lt;/span&gt;&lt;/div&gt;" style="rounded=0;whiteSpace=wrap;html=1;fontSize=6;" parent="1" vertex="1">
          <mxGeometry x="1034.5" y="237" width="17" height="17" as="geometry" />
        </mxCell>
        <mxCell id="IA1L6tu0nkUOfIpiAk8X-36" value="" style="rounded=0;whiteSpace=wrap;html=1;fontSize=6;" parent="1" vertex="1">
          <mxGeometry x="1034.5" y="288" width="17" height="17" as="geometry" />
        </mxCell>
        <mxCell id="IA1L6tu0nkUOfIpiAk8X-37" value="" style="ellipse;whiteSpace=wrap;html=1;aspect=fixed;" parent="1" vertex="1">
          <mxGeometry x="1041" y="261" width="4" height="4" as="geometry" />
        </mxCell>
        <mxCell id="IA1L6tu0nkUOfIpiAk8X-38" value="" style="ellipse;whiteSpace=wrap;html=1;aspect=fixed;" parent="1" vertex="1">
          <mxGeometry x="1041" y="268" width="4" height="4" as="geometry" />
        </mxCell>
        <mxCell id="IA1L6tu0nkUOfIpiAk8X-39" value="" style="ellipse;whiteSpace=wrap;html=1;aspect=fixed;" parent="1" vertex="1">
          <mxGeometry x="1041" y="275" width="4" height="4" as="geometry" />
        </mxCell>
        <mxCell id="IA1L6tu0nkUOfIpiAk8X-45" value="" style="endArrow=classic;html=1;rounded=0;entryX=-0.047;entryY=0.124;entryDx=0;entryDy=0;entryPerimeter=0;exitX=0.998;exitY=0.127;exitDx=0;exitDy=0;exitPerimeter=0;endFill=1;strokeWidth=1;dashed=1;dashPattern=8 8;jumpSize=5;startSize=3;endSize=3;" parent="1" source="IA1L6tu0nkUOfIpiAk8X-2" target="IA1L6tu0nkUOfIpiAk8X-26" edge="1">
          <mxGeometry width="50" height="50" relative="1" as="geometry">
            <mxPoint x="816" y="223" as="sourcePoint" />
            <mxPoint x="866" y="173" as="targetPoint" />
          </mxGeometry>
        </mxCell>
        <mxCell id="IA1L6tu0nkUOfIpiAk8X-46" value="" style="endArrow=classic;html=1;rounded=0;entryX=-0.047;entryY=0.124;entryDx=0;entryDy=0;entryPerimeter=0;exitX=0.998;exitY=0.127;exitDx=0;exitDy=0;exitPerimeter=0;endFill=1;strokeWidth=1;dashed=1;dashPattern=8 8;jumpSize=5;startSize=3;endSize=3;" parent="1" edge="1">
          <mxGeometry width="50" height="50" relative="1" as="geometry">
            <mxPoint x="824" y="245.34" as="sourcePoint" />
            <mxPoint x="1070" y="245.34" as="targetPoint" />
          </mxGeometry>
        </mxCell>
        <mxCell id="jMIXoEjdxjFqMlHVh3dQ-1" value="0号子队列" style="text;html=1;align=center;verticalAlign=middle;whiteSpace=wrap;rounded=0;fontSize=8;" vertex="1" parent="1">
          <mxGeometry x="788" y="314" width="40" height="12" as="geometry" />
        </mxCell>
        <mxCell id="jMIXoEjdxjFqMlHVh3dQ-2" value="1号子队列" style="text;html=1;align=center;verticalAlign=middle;whiteSpace=wrap;rounded=0;fontSize=8;" vertex="1" parent="1">
          <mxGeometry x="844" y="314" width="40" height="12" as="geometry" />
        </mxCell>
        <mxCell id="jMIXoEjdxjFqMlHVh3dQ-3" value="2号子队列" style="text;html=1;align=center;verticalAlign=middle;whiteSpace=wrap;rounded=0;fontSize=8;" vertex="1" parent="1">
          <mxGeometry x="894" y="314" width="40" height="12" as="geometry" />
        </mxCell>
        <mxCell id="jMIXoEjdxjFqMlHVh3dQ-4" value="63号子队列" style="text;html=1;align=center;verticalAlign=middle;whiteSpace=wrap;rounded=0;fontSize=8;" vertex="1" parent="1">
          <mxGeometry x="1068" y="314" width="43" height="12" as="geometry" />
        </mxCell>
        <mxCell id="jMIXoEjdxjFqMlHVh3dQ-5" value="62号子队列" style="text;html=1;align=center;verticalAlign=middle;whiteSpace=wrap;rounded=0;fontSize=8;" vertex="1" parent="1">
          <mxGeometry x="1021.5" y="314" width="43" height="12" as="geometry" />
        </mxCell>
      </root>
    </mxGraphModel>
  </diagram>
</mxfile>
